# xmcd CD database file
#
# Track frame offsets:
#	150
#	10449
#	29396
#	55197
#	76584
#	101059
#	125049
#	135310
#	157021
#	173874
#	189959
#	222888
#
# Disc length: 3340 seconds
#
# Revision: 2
# Processed by: cddbd v1.5.2PL0 Copyright (c) Steve Scherf et al.
# Submitted via: CDex 1.51
#
DISCID=9a0d0a0c
DTITLE=スチャダラパー - WILD FANCY ALLIANCE
DYEAR=1993
DGENRE=Rock
TTITLE0=プロロローグ
TTITLE1=ヒマの過ごし方
TTITLE2=クラッカー MC’S
TTITLE3=PROTECT HIM (from what he wants)
TTITLE4=Kick it, JAWS
TTITLE5=トリオ ザ キップス改
TTITLE6=後者 -THE LATTER-
TTITLE7=ついてる男
TTITLE8=WILD FANCY SAMPLER
TTITLE9=そ・れ・ば・な
TTITLE10=Little Bird Strut
TTITLE11=後方からの手紙
EXTD=YEAR: 1993
EXTT0=
EXTT1=
EXTT2=
EXTT3=
EXTT4=
EXTT5=
EXTT6=
EXTT7=
EXTT8=
EXTT9=
EXTT10=
EXTT11=
PLAYORDER=
